<?xml version="1.0" standalone="no"?>
<!DOCTYPE svg PUBLIC "-//W3C//DTD SVG 20010904//EN"
 "http://www.w3.org/TR/2001/REC-SVG-20010904/DTD/svg10.dtd">
<svg version="1.0" xmlns="http://www.w3.org/2000/svg"
 width="500.000000pt" height="500.000000pt" viewBox="0 0 500.000000 500.000000"
 preserveAspectRatio="xMidYMid meet">

<g transform="translate(0.000000,500.000000) scale(0.100000,-0.100000)"
fill="#000000" stroke="none">
<path d="M2730 4395 c0 -3 -14 -67 -31 -143 -37 -169 -34 -209 20 -263 43 -43
105 -63 170 -56 91 10 123 58 167 248 l31 138 -25 6 c-14 3 -28 2 -32 -2 -4
-4 -19 -63 -34 -131 -38 -177 -55 -203 -135 -204 -55 -1 -93 21 -115 65 -18
38 -18 38 14 183 17 81 30 147 28 149 -7 6 -58 15 -58 10z"/>
<path d="M2065 4249 c-11 -6 -32 -25 -47 -42 -27 -30 -28 -30 -28 -8 0 20 -3
22 -27 16 -16 -4 -29 -8 -30 -9 -4 -4 83 -296 90 -302 2 -3 16 -2 29 1 l25 6
-23 82 c-31 106 -31 151 1 182 13 14 31 25 40 25 17 0 18 4 9 38 -7 25 -11 26
-39 11z"/>
<path d="M3157 4058 c-77 -174 -84 -194 -70 -205 9 -7 22 -13 28 -13 9 0 130
251 181 376 4 8 -34 34 -50 34 -1 0 -41 -87 -89 -192z"/>
<path d="M3346 3968 c-209 -175 -227 -193 -210 -205 10 -7 22 -12 26 -11 4 2
111 88 237 193 175 144 227 193 219 202 -6 7 -18 13 -27 12 -9 0 -119 -86
-245 -191z"/>
<path d="M1682 4104 c-115 -59 -109 -234 11 -293 45 -22 53 -23 100 -12 59 13
110 49 132 92 15 28 15 30 -7 38 -19 7 -26 4 -42 -21 -37 -57 -126 -77 -176
-38 -14 10 -23 21 -20 23 3 2 56 30 118 61 61 32 112 62 112 67 0 5 -17 28
-39 51 -35 38 -43 42 -97 45 -42 3 -69 -1 -92 -13z m139 -53 c13 -11 22 -21
19 -23 -21 -18 -179 -96 -184 -91 -10 11 -6 57 8 82 28 51 113 68 157 32z"/>
<path d="M2367 4043 c-13 -13 -7 -61 9 -67 29 -11 44 -6 56 19 8 19 8 28 -2
40 -13 15 -51 20 -63 8z"/>
<path d="M3555 3904 c-110 -121 -130 -157 -120 -222 5 -37 17 -55 59 -98 58
-57 97 -72 164 -59 30 5 58 27 150 121 62 63 112 120 110 126 -2 6 -12 16 -22
22 -15 9 -32 -4 -114 -91 -53 -56 -107 -106 -119 -112 -52 -26 -116 -2 -154
55 -40 61 -24 94 106 232 85 90 87 93 70 112 -10 11 -21 20 -25 20 -4 0 -51
-48 -105 -106z"/>
<path d="M1385 3906 c-40 -17 -81 -67 -90 -108 -7 -30 -8 -31 -21 -13 -14 19
-15 19 -35 -2 l-21 -20 138 -159 c75 -88 140 -163 144 -167 4 -4 17 1 30 11
l24 19 -52 59 -51 59 37 9 c49 11 95 47 116 89 64 135 -82 283 -219 223z m99
-50 c88 -37 104 -153 26 -199 -77 -46 -170 12 -170 106 0 43 31 84 73 96 18 5
33 10 35 10 1 1 17 -5 36 -13z"/>
<path d="M3964 3534 l-48 -116 -50 6 c-28 3 -89 8 -134 12 l-84 7 16 -30 c15
-30 16 -31 121 -38 58 -4 105 -11 105 -17 0 -5 -17 -51 -38 -101 -38 -91 -38
-92 -21 -122 l18 -29 24 54 c13 30 37 88 53 128 l29 73 40 -5 c22 -3 80 -9
129 -12 l88 -7 -17 27 c-20 30 -30 33 -134 40 -40 3 -76 7 -78 10 -3 3 12 46
32 95 36 87 37 91 21 116 -9 14 -18 25 -20 25 -2 0 -25 -52 -52 -116z"/>
<path d="M1096 3596 c-109 -66 -117 -223 -14 -286 69 -42 137 -38 194 12 47
42 64 77 64 136 0 123 -139 202 -244 138z m155 -75 c43 -43 49 -73 24 -121
-43 -82 -155 -79 -201 5 -37 70 16 155 98 155 34 0 47 -7 79 -39z"/>
<path d="M772 3336 c-10 -23 -6 -26 191 -119 182 -87 203 -95 215 -80 6 9 12
22 12 27 0 10 -380 196 -399 196 -4 0 -13 -11 -19 -24z"/>
<path d="M875 3116 c-113 -50 -129 -213 -28 -280 88 -58 193 -35 240 54 39 73
27 194 -16 171 -15 -8 -17 -19 -13 -59 3 -33 -1 -59 -12 -80 -24 -46 -106 -84
-106 -49 0 8 13 58 30 113 16 54 30 106 30 115 0 29 -73 38 -125 15z m72 -61
c-4 -8 -16 -50 -28 -95 -13 -46 -27 -80 -35 -80 -24 0 -54 51 -54 92 0 51 43
98 90 98 24 0 31 -4 27 -15z"/>
<path d="M4106 2984 c-104 -18 -191 -35 -193 -38 -11 -11 30 -205 54 -254 35
-75 94 -112 175 -112 97 0 164 38 199 115 23 49 24 122 4 235 -8 47 -15 86
-15 88 0 5 -43 -1 -224 -34z m194 -108 c7 -41 10 -89 6 -108 -15 -81 -74 -128
-161 -128 -92 0 -142 57 -165 189 -6 34 -10 65 -8 66 4 5 268 53 294 54 19 1
23 -8 34 -73z"/>
<path d="M730 2772 c0 -27 9 -34 126 -94 l126 -65 -136 -48 c-133 -47 -136
-48 -136 -77 0 -20 4 -29 13 -26 6 3 80 29 162 59 83 29 153 58 157 64 4 5 8
20 8 32 0 18 -26 35 -160 103 l-160 81 0 -29z"/>
<path d="M4019 2496 c-50 -34 -73 -90 -67 -166 5 -72 24 -98 57 -80 20 10 20
13 6 33 -37 53 -5 155 55 176 l33 11 -7 -83 c-4 -45 -9 -106 -13 -136 l-6 -54
54 6 c84 10 137 61 146 140 7 63 -24 126 -76 155 -55 31 -134 30 -182 -2z
m174 -56 c64 -50 30 -180 -46 -180 -17 0 -18 7 -11 93 9 120 11 123 57 87z"/>
<path d="M825 2416 c-94 -41 -120 -166 -53 -251 64 -82 214 -68 266 24 29 51
29 127 2 182 -24 47 -45 58 -68 36 -15 -15 -14 -19 7 -41 47 -50 34 -164 -20
-181 -11 -4 -22 -5 -24 -3 -2 1 -12 57 -22 123 -20 132 -25 139 -88 111z m39
-78 c3 -18 10 -60 16 -92 13 -79 14 -76 -15 -76 -59 0 -102 89 -71 148 15 28
40 51 58 52 4 0 9 -15 12 -32z"/>
<path d="M3943 2178 c-38 -42 -57 -91 -57 -149 -1 -65 17 -94 65 -104 41 -9
71 13 111 81 37 63 57 80 83 70 25 -9 16 -93 -15 -136 -21 -29 -21 -33 -7 -47
14 -14 19 -14 32 -3 22 19 43 60 54 109 18 84 -22 146 -90 139 -33 -3 -60 -31
-114 -120 -25 -40 -50 -47 -65 -17 -16 28 1 90 37 137 20 26 22 36 13 47 -17
20 -23 19 -47 -7z"/>
<path d="M892 2045 c-92 -40 -135 -103 -135 -195 0 -42 10 -78 43 -155 23 -55
45 -103 49 -108 7 -7 364 145 384 163 11 10 -70 192 -105 234 -55 68 -159 94
-236 61z m148 -60 c16 -8 40 -30 54 -47 22 -31 80 -148 74 -153 -8 -6 -282
-125 -288 -125 -13 0 -70 146 -70 180 0 114 131 196 230 145z"/>
<path d="M3819 1889 c-6 -12 -7 -25 -2 -29 4 -5 70 -38 146 -74 l138 -65 10
26 c5 14 8 27 6 29 -5 5 -275 134 -281 134 -3 0 -10 -9 -17 -21z"/>
<path d="M3675 1821 c-74 -46 -131 -144 -120 -204 10 -50 38 -79 175 -177
l125 -89 20 20 c19 20 19 21 1 34 -17 13 -16 15 15 28 91 39 134 144 91 224
-57 106 -200 113 -274 12 -11 -14 -22 -47 -26 -74 l-7 -48 -33 37 c-36 42 -39
63 -15 113 14 31 74 85 105 95 14 5 0 48 -15 48 -7 0 -25 -8 -42 -19z m199
-145 c74 -31 89 -111 32 -173 -29 -32 -41 -38 -75 -38 -58 0 -106 48 -105 103
2 48 25 85 67 106 39 19 40 19 81 2z"/>
<path d="M4170 1719 c-14 -26 3 -49 36 -49 17 0 25 7 30 24 3 14 3 30 -1 35
-11 19 -54 12 -65 -10z"/>
<path d="M1282 1519 c-74 -37 -112 -115 -92 -189 15 -55 70 -108 121 -116 l41
-7 -62 -62 -61 -61 21 -19 c21 -19 22 -18 175 135 85 85 155 160 155 166 0 6
-7 17 -15 24 -13 10 -19 10 -35 -5 -20 -18 -20 -17 -20 12 0 34 -32 87 -71
116 -41 30 -106 32 -157 6z m136 -55 c59 -41 64 -120 11 -174 -48 -48 -109
-45 -158 6 -30 32 -33 41 -28 78 11 83 112 135 175 90z"/>
<path d="M3526 1471 c-18 -20 -17 -22 31 -78 27 -32 57 -69 66 -83 50 -72 -26
-182 -104 -150 -22 10 -76 67 -147 158 -11 15 -14 14 -34 -5 l-21 -22 73 -86
c85 -101 123 -123 181 -106 47 14 98 64 106 102 6 32 13 35 31 17 10 -10 16
-8 31 7 19 20 18 21 -81 140 -55 66 -103 121 -107 123 -4 1 -16 -6 -25 -17z"/>
<path d="M1614 1286 c-10 -26 2 -45 25 -39 33 9 107 -33 125 -71 18 -38 21
-72 7 -81 -5 -3 -50 19 -98 48 -140 85 -130 82 -148 48 -38 -75 -8 -173 65
-213 54 -30 140 -21 181 18 43 41 59 76 59 131 0 59 -25 103 -77 137 -50 33
-130 46 -139 22z m43 -183 c43 -25 80 -48 83 -51 3 -2 -6 -12 -19 -23 -43 -35
-121 -18 -147 32 -16 32 -19 89 -4 89 5 0 44 -21 87 -47z"/>
<path d="M3129 1200 c-36 -19 -89 -73 -89 -90 0 -5 10 -15 22 -21 18 -10 23
-9 27 2 18 54 106 92 161 69 63 -26 58 -35 -65 -93 -72 -35 -115 -61 -115 -71
0 -25 59 -84 97 -97 99 -32 212 50 213 156 0 45 -40 116 -79 142 -43 29 -121
30 -172 3z m191 -159 c0 -45 -34 -86 -80 -96 -32 -7 -100 19 -100 39 0 10 151
94 173 95 4 1 7 -16 7 -38z"/>
<path d="M2003 1118 c-4 -7 -56 -94 -115 -193 l-108 -180 26 -9 c14 -4 27 -6
29 -5 1 2 44 73 95 157 50 83 93 152 94 152 2 0 11 -78 21 -172 10 -95 22
-179 28 -185 5 -7 19 -13 31 -13 16 0 41 33 111 150 50 82 93 150 96 150 3 0
13 -77 23 -172 9 -95 19 -175 22 -179 2 -4 15 -9 29 -11 18 -4 25 -1 25 11 0
21 -42 425 -45 429 -1 1 -16 7 -33 11 l-31 9 -92 -154 c-50 -85 -93 -153 -94
-152 -2 2 -11 78 -21 171 -10 92 -20 171 -24 176 -10 15 -58 22 -67 9z"/>
<path d="M2923 1119 c-28 -10 -28 -2 -2 -95 27 -100 27 -139 -2 -170 -12 -13
-28 -24 -35 -24 -18 0 -26 -17 -19 -40 9 -29 33 -24 72 15 41 41 43 42 43 15
0 -17 4 -19 28 -14 15 4 28 7 29 8 4 3 -79 301 -86 307 -3 4 -16 3 -28 -2z"/>
<path d="M2540 1040 c-15 -28 4 -60 35 -60 14 0 29 8 35 20 15 28 -4 60 -35
60 -14 0 -29 -8 -35 -20z"/>
</g>
</svg>
